HIERARCHY
ROOT Hips
{
	OFFSET	0.00	0.00	0.00
	CHANNELS 6 Xposition Yposition Zposition Zrotation Xrotation Yrotation
	JOINT LeftUpLeg
	{
		OFFSET	 0.126116	-0.014019	-0.065224
		CHANNELS 3 Zrotation Xrotation Yrotation
		JOINT LeftLeg
		{
			OFFSET	 0.000000	 0.000000	 0.569914
			CHANNELS 3 Zrotation Xrotation Yrotation
			JOINT LeftFoot
			{
				OFFSET	 0.000000	 0.000000	 0.544423
				CHANNELS 3 Zrotation Xrotation Yrotation
				JOINT LeftToeBase
				{
					OFFSET	 0.000000	 0.000000	 0.207117
					CHANNELS 3 Zrotation Xrotation Yrotation
					End Site
					{
						OFFSET	 0.000000	 0.000000	 0.207117
					}
				}
			}
		}
	}
	JOINT RightUpLeg
	{
		OFFSET	-0.124023	-0.008373	-0.065224
		CHANNELS 3 Zrotation Xrotation Yrotation
		JOINT RightLeg
		{
			OFFSET	 0.000000	 0.000000	 0.570047
			CHANNELS 3 Zrotation Xrotation Yrotation
			JOINT RightFoot
			{
				OFFSET	 0.000000	 0.000000	 0.544354
				CHANNELS 3 Zrotation Xrotation Yrotation
				JOINT RightToeBase
				{
					OFFSET	 0.000000	 0.000000	 0.207540
					CHANNELS 3 Zrotation Xrotation Yrotation
					End Site
					{
						OFFSET	 0.000000	 0.000000	 0.207540
					}
				}
			}
		}
	}
	JOINT Spine
	{
		OFFSET	 0.000184	-0.007763	 0.117403
		CHANNELS 3 Zrotation Xrotation Yrotation
		JOINT Spine1
		{
			OFFSET	 0.000000	 0.000000	 0.137269
			CHANNELS 3 Zrotation Xrotation Yrotation
			JOINT Spine2
			{
				OFFSET	 0.000000	 0.000000	 0.156879
				CHANNELS 3 Zrotation Xrotation Yrotation
				JOINT LeftShoulder
				{
					OFFSET	 0.080501	-0.002496	 0.160144
					CHANNELS 3 Zrotation Xrotation Yrotation
					JOINT LeftArm
					{
						OFFSET	 0.000000	 0.000000	 0.164363
						CHANNELS 3 Zrotation Xrotation Yrotation
						JOINT LeftForeArm
						{
							OFFSET	 0.000000	 0.000000	 0.364576
							CHANNELS 3 Zrotation Xrotation Yrotation
							JOINT LeftHand
							{
								OFFSET	 0.000000	 0.000000	 0.360812
								CHANNELS 3 Zrotation Xrotation Yrotation
								JOINT LeftHandIndex1
								{
									OFFSET	 0.000000	 0.000000	 0.086006
									CHANNELS 3 Zrotation Xrotation Yrotation
									JOINT LeftHandIndex2
									{
										OFFSET	 0.000000	 0.000000	 0.047236
										CHANNELS 3 Zrotation Xrotation Yrotation
										JOINT LeftHandIndex3
										{
											OFFSET	-0.004284	-0.000551	 0.038166
											CHANNELS 3 Zrotation Xrotation Yrotation
											End Site
											{
												OFFSET	-0.004284	-0.000551	 0.038166
											}
										}
									}
								}
							}
						}
					}
				}
				JOINT Neck
				{
					OFFSET	 0.000000	 0.000000	 0.176489
					CHANNELS 3 Zrotation Xrotation Yrotation
					JOINT Head
					{
						OFFSET	 0.000000	-0.001747	 0.077940
						CHANNELS 3 Zrotation Xrotation Yrotation
						End Site
						{
							OFFSET	 0.000000	-0.001747	 0.077940
						}
					}
				}
				JOINT RightShoulder
				{
					OFFSET	-0.080363	 0.000306	 0.159706
					CHANNELS 3 Zrotation Xrotation Yrotation
					JOINT RightArm
					{
						OFFSET	 0.000000	 0.000000	 0.164196
						CHANNELS 3 Zrotation Xrotation Yrotation
						JOINT RightForeArm
						{
							OFFSET	 0.000000	 0.000000	 0.365611
							CHANNELS 3 Zrotation Xrotation Yrotation
							JOINT RightHand
							{
								OFFSET	 0.000000	 0.000000	 0.360648
								CHANNELS 3 Zrotation Xrotation Yrotation
								JOINT RightHandIndex1
								{
									OFFSET	 0.000000	 0.000000	 0.069977
									CHANNELS 3 Zrotation Xrotation Yrotation
									JOINT RightHandIndex2
									{
										OFFSET	 0.000000	 0.000000	 0.052305
										CHANNELS 3 Zrotation Xrotation Yrotation
										JOINT RightHandIndex3
										{
											OFFSET	 0.009002	-0.000782	 0.042196
											CHANNELS 3 Zrotation Xrotation Yrotation
											End Site
											{
												OFFSET	 0.009002	-0.000782	 0.042196
											}
										}
									}
								}
							}
						}
					}
				}
			}
		}
	}
}
MOTION
Frames:    12
Frame Time: 0.03333334
-0.058965	-2.263667	 1.204401	 4.360559	-1.647843	-3.557278	 23.526980	-8.092310	-176.279600	 0.536360	-37.544170	 0.092620	 63.441300	 82.678500	-66.990180	-2.370858	 31.370020	-0.064388	-28.028030	-32.015340	-176.677500	 9.819708	-50.194020	 8.163810	-0.304766	 69.927440	 8.037825	 2.358139	 33.121330	 0.106051	 9.499555	 8.038606	 1.339480	 0.806934	 5.741702	 2.329505	-6.296171	-6.390543	-3.400907	-93.819940	 58.906410	 175.647900	 10.292730	 27.954670	-41.994930	 10.905240	-1.262681	-5.919209	-0.640192	-19.567910	-6.628593	-4.869338	 19.242660	-2.786465	-3.888715	 21.380690	 2.210056	-4.808247	 5.545617	 0.146963	-0.110827	-5.033433	 0.166336	-8.125058	 0.226274	 2.052149	 89.816140	 61.602210	-179.918900	-18.929520	 48.967380	 11.876360	-13.185610	-1.319617	 5.968896	-4.949656	-5.389832	 0.689210	 6.301104	 25.642610	-0.565805	 1.778263	 45.552940	-6.897302	 0.406422	 24.799470	 3.629464
-0.060789	-2.304787	 1.202447	 4.916891	-1.377921	-3.564662	 22.584120	-6.169848	-177.193500	 0.864620	-36.696250	 0.305910	 69.278250	 83.930110	-72.878020	-2.369864	 31.537200	-0.068158	-29.697100	-33.817380	-178.832700	 9.329736	-44.772970	 7.141844	-4.769528	 68.886810	 12.908370	 2.358713	 33.037860	 0.104109	 5.177422	 7.923101	 1.279048	 0.728413	 5.951265	 2.339775	-6.564037	-6.535669	-3.454432	-93.923480	 58.989110	 175.416900	 9.015442	 25.796370	-42.725250	 12.405720	-1.710977	-6.854525	 0.454186	-21.274730	-7.210980	-4.869089	 19.247830	-2.786510	-3.884576	 21.433790	 2.205848	-4.808264	 5.545403	 0.146972	-0.079858	-5.070394	 0.182127	-8.270888	 0.216554	 1.912982	 89.783650	 61.643560	-179.996400	-18.971110	 50.126060	 9.504958	-15.358260	-2.492022	 8.458192	-6.166586	-6.516484	 0.431718	 6.294522	 24.933590	-0.542982	 1.877230	 44.767440	-6.985743	 0.524172	 24.285390	 3.569336
-0.062990	-2.348601	 1.198492	 5.478869	-0.943819	-3.605443	 21.671630	-4.315992	-178.063400	 1.120801	-35.900770	 0.450410	 78.452700	 85.192170	-82.026910	-2.368887	 31.700540	-0.071864	-31.515910	-35.163380	 178.765100	 9.079485	-38.066510	 6.102642	-9.592959	 67.590370	 17.818320	 2.358976	 33.000260	 0.103225	 0.551352	 7.666797	 1.191265	 0.661250	 6.137428	 2.428812	-6.866503	-6.678488	-3.554685	-94.053580	 59.017920	 175.135500	 7.659870	 23.629800	-43.372710	 14.228640	-2.256420	-7.807326	 1.823016	-23.201350	-7.402400	-4.865953	 19.332430	-2.792976	-3.877729	 21.521420	 2.198891	-4.805923	 5.573099	 0.145353	-0.050073	-5.096866	 0.215381	-8.453856	 0.213136	 1.800852	 89.736260	 61.701430	 179.890500	-18.912870	 51.486130	 5.596458	-17.522370	-5.284815	 13.645090	-7.621958	-7.689519	 0.057596	 6.282679	 24.004250	-0.545277	 1.990181	 43.840290	-7.086202	 0.707758	 23.474360	 3.477329
-0.065150	-2.384677	 1.194256	 5.933004	-0.533073	-3.649052	 20.927990	-2.811616	-178.756700	 1.284646	-35.174880	 0.536889	 89.244630	 86.131320	-92.771050	-2.368097	 31.829830	-0.074801	-32.980000	-35.827870	 176.814700	 9.011493	-32.466790	 5.280745	-13.306430	 67.428600	 21.172830	 2.359059	 32.988170	 0.102948	-3.263093	 7.405186	 1.105167	 0.596182	 6.191288	 2.527294	-7.117374	-6.750744	-3.646405	-94.168330	 59.020040	 174.890400	 6.678521	 22.077750	-43.780490	 15.774710	-2.744520	-8.542899	 3.017259	-24.789030	-7.374883	-4.862309	 19.431370	-2.800663	-3.871169	 21.605110	 2.192226	-4.803114	 5.606179	 0.143416	-0.026702	-5.113899	 0.248857	-8.612809	 0.213924	 1.721601	 89.692620	 61.754340	 179.785800	-18.720980	 52.308590	 3.602520	-19.387210	-6.642180	 15.483970	-8.877802	-8.604910	-0.305415	 6.270952	 23.173590	-0.556991	 2.084222	 43.042160	-7.169416	 0.878828	 22.708160	 3.393524
-0.067425	-2.420653	 1.189311	 6.197781	-0.134589	-3.817051	 20.392180	-1.064757	-179.356600	 1.396990	-34.151230	 0.586277	 107.162300	 86.891400	-110.630000	-2.366892	 32.024700	-0.079241	-33.768710	-36.782510	 175.182800	 9.132621	-28.045100	 4.686472	-15.546120	 66.760390	 22.913020	 2.360079	 32.834460	 0.099391	-6.924950	 7.098317	 1.153437	 0.534732	 6.289425	 2.593791	-7.342344	-6.802653	-3.729320	-94.269870	 58.988080	 174.678500	 5.810236	 20.800680	-44.154030	 17.017700	-3.259056	-9.236002	 4.102942	-26.431530	-6.691172	-4.854873	 19.607730	-2.809525	-3.861596	 21.726950	 2.182507	-4.797380	 5.673698	 0.139460	-0.014585	-5.146310	 0.281498	-8.787114	 0.213793	 1.687905	 89.628390	 61.833100	 179.631000	-18.381810	 52.924030	 2.336799	-21.542080	-7.371025	 15.938800	-10.311920	-9.386798	-0.958462	 6.255151	 22.216090	-0.586544	 2.172007	 42.275100	-7.246734	 1.087920	 21.758060	 3.293701
-0.070071	-2.455540	 1.182908	 6.417261	 0.260680	-4.017373	 19.908320	 0.658280	-179.932300	 1.496464	-33.202140	 0.626365	 133.920300	 87.166280	-137.344000	-2.365572	 32.235490	-0.084050	-34.448860	-38.990380	 173.503200	 9.475961	-26.166160	 4.551909	-17.528540	 66.984710	 24.414870	 2.361347	 32.645140	 0.095008	-10.447040	 6.779006	 1.234193	 0.483116	 6.398152	 2.665242	-7.557483	-6.846667	-3.814728	-94.367690	 58.947610	 174.476300	 5.061684	 19.730890	-44.544920	 18.120550	-3.785478	-9.872573	 5.178797	-27.998240	-5.792513	-4.846461	 19.803100	-2.818669	-3.851268	 21.858020	 2.172006	-4.790917	 5.749716	 0.134994	-0.005394	-5.182477	 0.313795	-8.961942	 0.214564	 1.665876	 89.559450	 61.918200	 179.463900	-17.973150	 53.438670	 1.033117	-23.651510	-8.180140	 16.463830	-11.780550	-10.053260	-1.695427	 6.237959	 21.230670	-0.620567	 2.256060	 41.519670	-7.320432	 1.303045	 20.765050	 3.194047
-0.073302	-2.494279	 1.175054	 6.525899	 0.511765	-4.219173	 19.464660	 2.884299	 179.346500	 1.555344	-31.883360	 0.635281	 160.624500	 87.166340	-163.943000	-2.362077	 32.775240	-0.096455	-34.414860	-41.889880	 172.084500	 9.629412	-25.931660	 4.583003	-21.360080	 70.742210	 27.544930	 2.357261	 33.249320	 0.109027	-14.211640	 6.492221	 1.348912	 0.438274	 6.646145	 2.675344	-7.750566	-6.894816	-3.866292	-94.433770	 58.903630	 174.342500	 4.212296	 18.867580	-44.951470	 19.325640	-4.376841	-10.515470	 6.236013	-29.346160	-4.775814	-4.835174	 20.031790	-2.821663	-3.836419	 22.045610	 2.156926	-4.779870	 5.879565	 0.127346	 0.009807	-5.234091	 0.331765	-9.123320	 0.203825	 1.617006	 89.495510	 61.983570	 179.308400	-17.332580	 53.878780	-0.441378	-25.993080	-9.105603	 17.003400	-13.403750	-10.769690	-2.775999	 6.215396	 20.033280	-0.668412	 2.405853	 40.120750	-7.450867	 1.562261	 19.548030	 3.078215
-0.076184	-2.528325	 1.168579	 6.592528	 0.688395	-4.382245	 19.113670	 5.043572	 178.724800	 1.591101	-30.242770	 0.623805	-179.537500	 87.088720	 176.297800	-2.358485	 33.305900	-0.108770	-34.097290	-43.984420	 171.229300	 9.673781	-26.121050	 4.634058	-26.687490	 75.148860	 32.130300	 2.352311	 33.943090	 0.125314	-17.345510	 6.255020	 1.446759	 0.381744	 6.753216	 2.661715	-7.899541	-6.873621	-3.888212	-94.481940	 58.865930	 174.246300	 3.578594	 18.313500	-45.139630	 20.303970	-4.889299	-11.022790	 7.129387	-30.344790	-3.871858	-4.825006	 20.231760	-2.822747	-3.822829	 22.216540	 2.143118	-4.769482	 6.001296	 0.120148	 0.024025	-5.281071	 0.343552	-9.252972	 0.193350	 1.569722	 89.443150	 62.033890	 179.180400	-16.730830	 54.154140	-1.448250	-28.018790	-9.652328	 17.084750	-14.794660	-11.286670	-3.770876	 6.194552	 18.977400	-0.711910	 2.541353	 38.794050	-7.567812	 1.787513	 18.472470	 2.981423
-0.079625	-2.569856	 1.162420	 6.748781	 0.721710	-4.523062	 18.690280	 8.126334	 177.916100	 1.674978	-27.295170	 0.606437	-153.885100	 87.605020	 150.690400	-2.349172	 34.582060	-0.138867	-33.915060	-44.916760	 170.667700	 10.078070	-25.910190	 4.781065	-30.506510	 77.816700	 34.998620	 2.344009	 35.029400	 0.151228	-21.008090	 6.274944	 1.509268	 0.270022	 6.401655	 2.695619	-8.048583	-6.719694	-3.924401	-94.516650	 58.878050	 174.170500	 2.939156	 18.031480	-44.983920	 21.656130	-5.481889	-11.556790	 8.072403	-31.790780	-3.215356	-4.832579	 20.374860	-2.908412	-3.806323	 22.423040	 2.126352	-4.752508	 6.199948	 0.108358	 0.062068	-5.337582	 0.350210	-9.359644	 0.234530	 1.417394	 89.398550	 62.012030	 179.073300	-15.911810	 54.299340	-2.353471	-30.284140	-9.774807	 16.585280	-16.214320	-12.055120	-4.930487	 6.177913	 17.694600	-0.709902	 2.704386	 37.115980	-7.707088	 2.054641	 17.175910	 2.871433
-0.082880	-2.611581	 1.157453	 6.912746	 0.721883	-4.640698	 18.260340	 10.977990	 177.067000	 1.770522	-25.069530	 0.600847	-130.767400	 87.213360	 127.576100	-2.338362	 35.920980	-0.171228	-33.709010	-44.649470	 170.527400	 10.565850	-25.975230	 5.012391	-36.706640	 81.151540	 40.075620	 2.334939	 36.120330	 0.177808	-24.436890	 6.338976	 1.559908	 0.062192	 5.710839	 2.672400	-8.170108	-6.426647	-3.910841	-94.546240	 58.899380	 174.104100	 2.460226	 17.968800	-44.441120	 22.909970	-6.038289	-12.016780	 8.961094	-33.123780	-2.630181	-4.843015	 20.496700	-3.005299	-3.790290	 22.622550	 2.110081	-4.735324	 6.400444	 0.096390	 0.102331	-5.392125	 0.355460	-9.450521	 0.284932	 1.255506	 89.358460	 61.977100	 178.977800	-15.121440	 54.314880	-2.776662	-32.457990	-9.300653	 15.528060	-17.515530	-12.685360	-6.047539	 6.163632	 16.454030	-0.699344	 2.854975	 35.481900	-7.834207	 2.308453	 15.923310	 2.771874
-0.086970	-2.655480	 1.153079	 7.059326	 0.667216	-4.470426	 17.743610	 13.149440	 175.884200	 2.030003	-24.489160	 0.695430	-112.112400	 86.461720	 108.971700	-2.312988	 38.623710	-0.239327	-33.399210	-43.555420	 170.472600	 10.533020	-26.870880	 5.156434	-37.090920	 81.821370	 40.487390	 2.336971	 35.883880	 0.171999	-27.817750	 6.341490	 1.435357	-0.169230	 4.945319	 2.477418	-8.278481	-6.012155	-3.823977	-94.532750	 59.061410	 174.106000	 2.118375	 18.190910	-43.675240	 24.066120	-6.582469	-12.431330	 9.630184	-34.536520	-2.210779	-4.861372	 20.551820	-3.128094	-3.776711	 22.790770	 2.096284	-4.711284	 6.679942	 0.079601	 0.143527	-5.440598	 0.314498	-9.495602	 0.364795	 1.151062	 89.357120	 61.809820	 178.980900	-14.484550	 54.190460	-3.284702	-34.378070	-9.116816	 14.949260	-18.815630	-13.359660	-7.077775	 6.174514	 15.190790	-0.561576	 2.942872	 34.488830	-7.907672	 2.554487	 14.690610	 2.680107
-0.090486	-2.692647	 1.150139	 7.184457	 0.622358	-4.322867	 17.318570	 14.570900	 174.954500	 2.256760	-24.596750	 0.792759	-104.721100	 85.637630	 101.643900	-2.287553	 40.897850	-0.299968	-33.119220	-42.414420	 170.590500	 10.541620	-27.978180	 5.355184	-38.876740	 82.951150	 42.213070	 2.338658	 35.684090	 0.167115	-30.421850	 6.349300	 1.325320	-0.345622	 4.203336	 2.330055	-8.362721	-5.615824	-3.748832	-94.521320	 59.197760	 174.107600	 1.956116	 18.519770	-42.915960	 24.958390	-7.019148	-12.741910	 10.185340	-35.619310	-1.850405	-4.876719	 20.598150	-3.231452	-3.765244	 22.932210	 2.084644	-4.690986	 6.915070	 0.065372	 0.178138	-5.481399	 0.280059	-9.529637	 0.433117	 1.064389	 89.356060	 61.669080	 178.983600	-13.966500	 54.025600	-3.505100	-35.942680	-8.769454	 14.342050	-19.871140	-13.796420	-7.935855	 6.185965	 14.128350	-0.446531	 3.014778	 33.653950	-7.967343	 2.758808	 13.653560	 2.607536
